<svg width="512" height="288" viewBox="0 0 512 288" fill="none" xmlns="http://www.w3.org/2000/svg">
<path fill-rule="evenodd" clip-rule="evenodd" d="M118.5 1.39995C114.546 3.14295 110.051 7.71695 108.36 11.7179C107.612 13.4879 107 17.875 107 21.468V27.9999H96.316C87.512 27.9999 84.869 28.3689 81.302 30.0959C75.306 32.9979 72.074 38.7339 71.312 47.8229L70.727 54.7929L59.614 55.1519C46.904 55.5619 42.884 57.2329 38.8 63.7999C36.597 67.3439 36.479 68.5759 36 92.9999L35.5 118.5L23.419 119C12.006 119.472 11.128 119.66 7.54999 122.392C1.38599 127.097 -0.228005 132.131 0.165995 145.412C0.469995 155.641 0.741995 157.021 3.18399 160.707C7.43099 167.117 12.456 169 25.316 169H36V193.435C36 208.268 36.418 218.976 37.064 220.685C37.649 222.233 39.336 224.778 40.814 226.339C45.651 231.452 48.564 232.372 60.121 232.439L70.742 232.5L71.285 239.633C72.441 254.814 78.981 260 96.968 260H107V266.032C107 275.367 110.614 282.169 117.467 285.733C121.543 287.852 136.378 288.589 143 287C150.22 285.268 155.388 280.082 156.895 273.056C158.34 266.317 158.34 234.274 156.895 230.128C155.05 224.835 148.806 223.194 145 227C143.131 228.869 143 230.333 143 249.429C143 273.726 143.312 273 132.863 273C129.016 273 124.998 272.534 123.934 271.965C122.038 270.95 122 268.47 122 144.165C122 46.903 122.279 17.1209 123.2 16.1999C123.94 15.4599 127.57 14.9999 132.665 14.9999C139.813 14.9999 141.07 15.261 141.965 16.934C142.657 18.227 143 49.025 143 109.779C143 199.614 143.024 200.712 145.013 202.512C147.771 205.007 152.61 204.833 155.306 202.142C157.344 200.106 157.523 198.848 157.82 184.475L158.141 169H176.455H194.77L196.414 171.509C199.163 175.705 213.039 188.873 221.178 195.009C229.804 201.513 245.592 211.053 251.924 213.586C255.662 215.082 256.504 215.106 259.81 213.807C265.645 211.515 282.406 201.356 290.822 195.009C298.961 188.873 312.837 175.705 315.586 171.509L317.23 169H335.615H354V218.451C354 250.789 354.383 269.685 355.105 273.056C356.612 280.082 361.78 285.268 369 287C375.622 288.589 390.457 287.852 394.533 285.733C401.386 282.169 405 275.367 405 266.032V260H415.032C433.019 260 439.559 254.814 440.715 239.633L441.258 232.5L451.879 232.439C463.436 232.372 466.349 231.452 471.186 226.339C472.664 224.778 474.351 222.233 474.936 220.685C475.582 218.976 476 208.268 476 193.435V169H486.684C499.544 169 504.569 167.117 508.816 160.707C511.258 157.021 511.53 155.641 511.834 145.412C512.228 132.131 510.614 127.097 504.45 122.392C500.872 119.66 499.994 119.472 488.581 119L476.5 118.5L476 92.9999C475.521 68.5759 475.403 67.3439 473.2 63.7999C469.116 57.2329 465.096 55.5619 452.386 55.1519L441.273 54.7929L440.694 47.8839C440.008 39.7039 437.423 34.515 432.275 30.983C429.019 28.749 427.479 28.467 416.93 28.169L405.204 27.837L404.852 20.0949C404.454 11.3359 402.333 7.13895 396.167 2.90995C393.112 0.813952 391.283 0.454948 382.122 0.152948C370.365 -0.234052 365.605 0.778952 361.009 4.64595C354.274 10.313 354.53 7.98494 354.208 66.2879L353.917 119.077L345.208 118.788L336.5 118.5L336.254 115.5C335.692 108.625 333.606 101.147 330.734 95.7079C327.113 88.8489 317.411 79.4689 312.918 78.4819C308.62 77.5379 304.618 80.5 304.179 84.951C303.895 87.825 304.651 88.976 310.679 94.852C318.777 102.745 321.012 107.873 321.005 118.54C320.986 145.619 298.199 175.839 263.247 195.138L255.994 199.143L250.247 195.903C211.767 174.205 189.823 144.504 191.187 115.968C191.525 108.898 192.078 106.543 194.28 102.786C201.183 91.0059 216.213 85.2529 228.994 89.4979C234.114 91.1989 237.082 93.682 246.729 104.335C253.093 111.363 261.557 110.221 268.027 101.463C270.205 98.5149 273.143 95.2929 274.556 94.3019C281.864 89.1759 283 87.8459 283 84.4109C283 80.2139 280.049 76.9999 276.196 76.9999C272.536 76.9999 265.577 81.4999 260.26 87.3049L256.019 91.9349L251.294 86.8829C245.688 80.8899 240.123 77.4509 231.875 74.8839C206.67 67.0389 179.066 85.2099 176.25 111.5L175.5 118.5L166.799 118.788L158.098 119.076L157.799 66.2879C157.533 19.4049 157.315 13.1639 155.845 10.4999C153.592 6.41595 150.194 3.39694 145.768 1.54794C141.045 -0.426056 122.866 -0.524051 118.5 1.39995ZM388.8 16.1999C389.721 17.1209 390 46.903 390 144.165C390 268.47 389.962 270.95 388.066 271.965C384.912 273.653 372.413 273.27 370.571 271.429C369.16 270.017 369 257.115 369 144.363C369 59.769 369.337 18.238 370.035 16.934C370.93 15.261 372.187 14.9999 379.335 14.9999C384.43 14.9999 388.06 15.4599 388.8 16.1999ZM106.755 142.892C106.941 215.502 106.706 242.649 105.882 243.642C105.097 244.587 102.222 245 96.413 245C89.188 245 87.932 244.741 87.035 243.066C85.579 240.345 85.598 47.6189 87.055 44.8969C88.006 43.1199 89.015 42.9549 97.305 43.2129L106.5 43.4999L106.755 142.892ZM424.965 44.934C425.658 46.23 426 78.957 426 144C426 209.043 425.658 241.77 424.965 243.066C424.07 244.739 422.813 245 415.665 245C410.57 245 406.94 244.54 406.2 243.8C405.283 242.883 405 219.237 405 143.467C405 88.943 405.3 44.033 405.667 43.667C406.033 43.3 410.293 42.9999 415.131 42.9999C422.806 42.9999 424.062 43.247 424.965 44.934ZM69.418 70.6069C70.84 71.1529 71 78.513 71 143.572C71 226.394 72.128 218 61 218C49.875 218 51 226.31 51 144.165C51 89.681 51.289 72.1109 52.2 71.1999C53.449 69.9509 66.535 69.5009 69.418 70.6069ZM459.8 71.1999C460.711 72.1109 461 89.681 461 144.165C461 226.31 462.125 218 451 218C439.872 218 441 226.397 441 143.548C441 86.579 441.266 71.0589 442.25 70.6619C444.886 69.5979 458.619 70.0189 459.8 71.1999ZM36 144V154H26.7C20.8 154 16.961 153.561 16.2 152.8C14.928 151.528 14.467 135.866 15.667 134.667C16.033 134.3 20.758 134 26.167 134H36V144ZM178.942 138.75C179.59 141.363 181.194 145.863 182.505 148.75L184.889 154H171.445H158V144V134H167.881H177.763L178.942 138.75ZM354 144V154H340.555H327.111L329.495 148.75C330.806 145.863 332.41 141.363 333.058 138.75L334.237 134H344.119H354V144ZM496.792 142.847C496.977 148.141 496.658 151.707 495.92 152.597C495.072 153.618 492.205 154 485.378 154H476V143.965V133.93L486.25 134.215L496.5 134.5L496.792 142.847Z" fill="black"/>
</svg>
